<svg version="1.1" id="Layer_1" xmlns="http://www.w3.org/2000/svg" xmlns:xlink="http://www.w3.org/1999/xlink" x="0px" y="0px"
	 width="100%" viewBox="0 0 765 526" enable-background="new 0 0 765 526" xml:space="preserve">
<path fill="#F7F7F7" opacity="1.000000" stroke="none" 
	d="
M550.000000,527.000000 
	C366.666687,527.000000 183.833405,527.000000 1.000074,527.000000 
	C1.000049,351.666718 1.000049,176.333466 1.000025,1.000144 
	C255.999893,1.000096 510.999786,1.000096 765.999756,1.000048 
	C765.999878,176.333191 765.999878,351.666382 765.999939,526.999756 
	C694.166687,527.000000 622.333313,527.000000 550.000000,527.000000 
M281.503082,419.858032 
	C285.831573,419.857727 290.173920,420.080688 294.485901,419.813812 
	C305.858582,419.110077 314.340851,413.570190 319.621277,403.550842 
	C324.666565,393.977661 324.282745,384.376617 318.576172,375.095825 
	C314.473999,368.424316 308.349762,364.380615 300.771667,361.948212 
	C301.257629,361.151031 301.557526,360.611420 301.901581,360.101654 
	C310.875000,346.805969 304.440887,330.134064 288.731781,327.446228 
	C281.771088,326.255249 274.449463,326.851379 267.324860,327.241730 
	C266.057556,327.311157 263.938110,330.348267 263.925171,332.028229 
	C263.711975,359.662292 263.795135,387.298523 263.745850,414.934143 
	C263.739838,418.303375 265.228088,419.857574 268.519958,419.854126 
	C272.515472,419.849915 276.511017,419.856262 281.503082,419.858032 
M352.686401,136.190323 
	C338.515686,149.381439 324.344971,162.572556 310.174255,175.763672 
	C312.262268,176.067307 313.695312,175.452728 315.053619,174.702789 
	C332.798798,164.905548 350.556854,155.131058 368.244659,145.231140 
	C370.817932,143.790894 372.810211,143.597336 375.500305,145.166534 
	C395.300903,156.716827 415.205811,168.088348 435.077728,179.516434 
	C436.347229,180.246506 437.615570,180.978622 438.884430,181.709793 
	C439.417816,181.098175 439.951172,180.486557 440.484558,179.874954 
	C439.066833,179.111084 437.447876,178.577087 436.266693,177.543030 
	C431.508850,173.377838 426.777954,169.167633 422.285492,164.723022 
	C421.076538,163.526962 420.169556,161.465134 420.109955,159.766159 
	C419.867859,152.863083 420.009277,145.946564 420.009277,139.073334 
	C415.315277,139.073334 411.217133,139.073334 406.507629,139.073334 
	C406.507629,142.620392 406.507629,145.919769 406.507629,150.201080 
	C394.376068,139.142929 383.099731,128.864334 371.735992,118.506104 
	C365.389984,124.398468 359.298431,130.054581 352.686401,136.190323 
M457.230560,397.259766 
	C457.963470,398.367950 458.650513,399.509827 459.436188,400.579254 
	C472.531464,418.404266 496.151886,424.637024 515.950439,415.505096 
	C536.264282,406.135559 546.967163,384.488129 542.060486,362.695312 
	C537.297668,341.541138 517.824890,326.433624 495.751587,327.035431 
	C459.318634,328.028748 439.387054,367.274750 457.230560,397.259766 
M341.191895,358.742981 
	C340.986328,359.548340 340.788300,360.355713 340.574066,361.158783 
	C335.537415,380.037720 342.382019,399.174591 358.396820,410.984070 
	C373.466797,422.096771 394.076752,422.596893 410.412567,412.246338 
	C426.361176,402.141113 434.650787,382.498535 430.853363,363.810791 
	C426.806763,343.897034 409.323181,328.607635 388.863800,327.091003 
	C367.706940,325.522675 349.292511,337.566254 341.191895,358.742981 
M289.809357,207.501694 
	C257.049957,146.837662 295.321350,76.066101 357.927856,66.832298 
	C342.578278,61.500008 306.366791,79.714592 289.511444,101.246132 
	C263.715393,134.198807 261.351685,178.412735 283.963501,213.126373 
	C300.640015,238.728104 324.577179,252.815903 354.944794,256.152557 
	C326.849396,248.878281 304.700134,233.646729 289.809357,207.501694 
M157.141602,395.407654 
	C161.476364,402.688293 165.665909,410.063385 170.281296,417.161560 
	C171.101074,418.422363 173.691452,418.531860 175.464233,419.173004 
	C175.776001,417.288086 176.909851,415.020844 176.244537,413.590363 
	C174.292877,409.394043 171.619965,405.533905 169.239975,401.535858 
	C164.514984,393.598694 159.796997,385.657349 154.841507,377.323151 
	C156.347275,377.188599 157.141525,377.108429 157.937302,377.047882 
	C170.975906,376.056213 180.442322,366.563751 181.386093,353.531525 
	C182.277588,341.221466 173.914108,329.742249 161.323807,327.696289 
	C153.851990,326.482086 146.072815,327.098969 138.430496,327.011810 
	C131.239594,326.929779 130.996246,327.224792 130.995178,334.197266 
	C130.991135,360.339630 130.993515,386.482025 130.993683,412.624390 
	C130.993683,413.456940 130.688400,414.473938 131.056046,415.086456 
	C132.045029,416.734222 133.321777,418.209259 134.484283,419.752869 
	C135.699341,418.277344 137.504639,416.968933 137.981689,415.284424 
	C138.593079,413.125549 138.138046,410.664001 138.138260,408.332855 
	C138.139236,398.063354 138.138687,387.793884 138.138687,377.601868 
	C146.118881,376.719055 146.120789,376.717926 149.706711,382.746948 
	C152.084625,386.744934 154.456085,390.746735 157.141602,395.407654 
M564.788452,391.499329 
	C564.790222,399.324707 564.608459,407.157959 564.943298,414.969055 
	C565.013184,416.600037 566.991211,418.149261 568.089905,419.736145 
	C569.360413,418.122833 570.890015,416.641327 571.802917,414.846222 
	C572.341187,413.787781 571.902283,412.232239 571.902283,410.900269 
	C571.902405,399.817871 571.902344,388.735474 571.902344,376.728485 
	C573.054565,377.754669 573.508972,378.135010 573.936340,378.543579 
	C587.414856,391.427856 600.898621,404.306519 614.358398,417.210358 
	C616.397705,419.165497 618.524170,421.091919 621.037598,418.210449 
	C623.353638,415.555267 621.191772,413.661591 619.355103,411.903992 
	C614.183105,406.954742 608.751343,402.250214 603.869263,397.030792 
	C596.082886,388.706390 588.657898,380.043884 582.204529,372.788483 
	C586.541992,367.908630 592.067505,361.217468 598.103943,355.024292 
	C605.188110,347.756226 612.817627,341.020905 619.946228,333.793762 
	C621.056763,332.667908 620.761292,330.155273 621.116028,328.283936 
	C619.065247,328.409882 616.977966,328.352814 614.981201,328.750031 
	C614.159729,328.913483 613.536194,330.058289 612.817017,330.751007 
	C600.587097,342.532288 588.359131,354.315613 576.120850,366.088287 
	C574.999207,367.167267 573.810791,368.176880 571.902283,369.894867 
	C571.902283,358.089386 571.903076,347.331299 571.901428,336.573181 
	C571.901184,334.741791 572.355530,332.735992 571.752625,331.128571 
	C571.161682,329.553192 569.489868,328.383301 568.292419,327.035461 
	C567.130249,328.376862 565.732361,329.588470 564.895325,331.108856 
	C564.402100,332.004852 564.795227,333.390533 564.795044,334.556000 
	C564.792175,353.203766 564.790222,371.851532 564.788452,391.499329 
M464.155609,170.060852 
	C464.032349,168.806793 463.909058,167.552734 463.668671,165.107483 
	C454.607819,209.372116 429.447174,237.396820 385.247650,242.482697 
	C340.679077,247.610977 309.616089,225.958405 290.779968,185.810852 
	C294.290192,202.148849 302.320496,216.266129 314.643311,227.418732 
	C340.990723,251.264145 371.758240,258.841980 405.393341,246.756287 
	C440.501373,234.141388 460.163025,208.178635 464.155609,170.060852 
M213.509186,326.969971 
	C210.176132,326.969788 206.828232,327.168365 203.513611,326.921051 
	C198.964798,326.581696 197.240067,328.481659 197.256531,332.993073 
	C197.354431,359.823395 197.365967,386.654541 197.245850,413.484680 
	C197.224701,418.207794 198.970901,420.170563 203.739624,419.931335 
	C208.726562,419.681091 213.735825,419.876221 218.735336,419.875977 
	C246.467133,419.874664 246.711105,419.843353 246.835541,416.276306 
	C246.967087,412.505493 246.451859,412.434387 218.985657,412.433838 
	C214.376602,412.433746 209.767548,412.433807 205.082306,412.433807 
	C205.082306,400.012085 205.082306,388.142975 205.082306,376.030701 
	C207.391678,376.030701 209.371719,376.030792 211.351746,376.030701 
	C219.684250,376.030182 228.024063,376.209045 236.342819,375.870575 
	C237.917679,375.806488 239.408981,373.688507 240.938828,372.518219 
	C239.460159,371.276917 238.124496,369.758270 236.450775,368.895325 
	C235.396698,368.351837 233.836411,368.788361 232.503220,368.788300 
	C223.395218,368.787750 214.287201,368.788025 204.969513,368.788025 
	C204.969513,357.020660 204.969513,345.757568 204.969513,334.029602 
	C217.237610,334.029602 229.361237,334.002350 241.484558,334.050201 
	C244.254166,334.061157 247.033722,333.488953 246.549530,330.304138 
	C246.346390,328.967896 243.304550,327.184723 241.498184,327.119110 
	C232.510956,326.792389 223.505402,326.969940 213.509186,326.969971 
M359.785461,162.871582 
	C359.785461,165.284943 359.785461,167.698318 359.785461,169.838120 
	C363.932068,169.838120 367.327728,169.838120 370.553253,169.838120 
	C370.553253,166.204803 370.553253,162.955093 370.553253,159.423660 
	C367.592285,159.423660 364.920258,159.198334 362.323883,159.542953 
	C361.384796,159.667603 360.626862,161.157455 359.785461,162.871582 
M373.967621,167.213608 
	C374.797943,168.213989 375.521759,169.935684 376.478943,170.077026 
	C379.157196,170.472519 381.931885,170.214722 384.648926,170.214722 
	C384.648926,166.352051 384.648926,163.108459 384.648926,159.687149 
	C381.041962,159.687149 377.663940,159.687149 373.967438,159.687149 
	C373.967438,162.072250 373.967438,164.194107 373.967621,167.213608 
M382.428009,184.010895 
	C383.344788,183.252365 384.944580,182.579178 385.052002,181.719528 
	C385.393311,178.988220 385.178314,176.187408 385.178314,173.397324 
	C381.265228,173.397324 377.763000,173.397324 374.392548,173.397324 
	C374.392548,177.072418 374.392548,180.336456 374.392548,184.011124 
	C376.907196,184.011124 379.189178,184.011124 382.428009,184.010895 
M359.816132,177.536957 
	C359.816132,179.615936 359.816132,181.694916 359.816132,183.683762 
	C363.826965,183.683762 367.213074,183.683762 370.514404,183.683762 
	C370.514404,179.965408 370.514404,176.583939 370.514404,172.989075 
	C367.709167,172.989075 365.213226,173.191849 362.764618,172.938034 
	C359.662933,172.616531 359.631165,174.416443 359.816132,177.536957 
M296.182190,467.739777 
	C297.354279,467.985413 298.526337,468.231049 299.872101,468.513062 
	C299.872101,466.837891 299.872101,465.208588 299.872101,464.010010 
	C298.000397,464.010010 296.268585,464.010010 293.662628,464.010010 
	C294.407318,465.480865 295.153381,466.954407 296.182190,467.739777 
M512.162415,467.734100 
	C513.330750,467.974915 514.499084,468.215729 515.841492,468.492432 
	C515.841492,466.821747 515.841492,465.194824 515.841492,464.010590 
	C513.951050,464.010590 512.210876,464.010590 509.597656,464.010590 
	C510.377228,465.524567 511.121857,466.970764 512.162415,467.734100 
M214.985031,466.919586 
	C215.800003,467.149475 216.614960,467.379364 217.429916,467.609222 
	C217.473648,467.192841 217.517365,466.776459 217.561096,466.360077 
	C216.630569,466.360077 215.700043,466.360077 214.985031,466.919586 
z"/>
<path fill="#191919" opacity="1.000000" stroke="none" 
	d="
M281.004822,419.858032 
	C276.511017,419.856262 272.515472,419.849915 268.519958,419.854126 
	C265.228088,419.857574 263.739838,418.303375 263.745850,414.934143 
	C263.795135,387.298523 263.711975,359.662292 263.925171,332.028229 
	C263.938110,330.348267 266.057556,327.311157 267.324860,327.241730 
	C274.449463,326.851379 281.771088,326.255249 288.731781,327.446228 
	C304.440887,330.134064 310.875000,346.805969 301.901581,360.101654 
	C301.557526,360.611420 301.257629,361.151031 300.771667,361.948212 
	C308.349762,364.380615 314.473999,368.424316 318.576172,375.095825 
	C324.282745,384.376617 324.666565,393.977661 319.621277,403.550842 
	C314.340851,413.570190 305.858582,419.110077 294.485901,419.813812 
	C290.173920,420.080688 285.831573,419.857727 281.004822,419.858032 
M270.976532,380.509766 
	C270.976532,391.099060 270.976532,401.688354 270.976532,412.453644 
	C279.172272,412.453644 286.818665,412.702576 294.442749,412.395905 
	C306.183258,411.923584 315.303497,402.540802 315.819946,390.857727 
	C316.307190,379.835510 308.643494,370.322144 296.933655,369.069031 
	C288.479034,368.164246 279.849670,368.892670 270.976501,368.892670 
	C270.976501,372.581482 270.976501,376.046692 270.976532,380.509766 
M270.975494,338.626892 
	C270.975494,346.050110 270.975494,353.473328 270.975494,361.142151 
	C276.169464,361.142151 280.801453,361.205994 285.431030,361.127563 
	C292.819702,361.002411 298.675415,355.153931 298.819427,347.863495 
	C298.955933,340.953125 293.355713,334.626465 286.324219,334.122925 
	C282.188629,333.826752 278.003387,334.232971 273.865845,333.951111 
	C270.669403,333.733368 270.848022,335.580017 270.975494,338.626892 
z"/>
<path fill="#161616" opacity="1.000000" stroke="none" 
	d="
M352.946655,135.950500 
	C359.298431,130.054581 365.389984,124.398468 371.735992,118.506104 
	C383.099731,128.864334 394.376068,139.142929 406.507629,150.201080 
	C406.507629,145.919769 406.507629,142.620392 406.507629,139.073334 
	C411.217133,139.073334 415.315277,139.073334 420.009277,139.073334 
	C420.009277,145.946564 419.867859,152.863083 420.109955,159.766159 
	C420.169556,161.465134 421.076538,163.526962 422.285492,164.723022 
	C426.777954,169.167633 431.508850,173.377838 436.266693,177.543030 
	C437.447876,178.577087 439.066833,179.111084 440.484558,179.874954 
	C439.951172,180.486557 439.417816,181.098175 438.884430,181.709793 
	C437.615570,180.978622 436.347229,180.246506 435.077728,179.516434 
	C415.205811,168.088348 395.300903,156.716827 375.500305,145.166534 
	C372.810211,143.597336 370.817932,143.790894 368.244659,145.231140 
	C350.556854,155.131058 332.798798,164.905548 315.053619,174.702789 
	C313.695312,175.452728 312.262268,176.067307 310.174255,175.763672 
	C324.344971,162.572556 338.515686,149.381439 352.946655,135.950500 
z"/>
<path fill="#191919" opacity="1.000000" stroke="none" 
	d="
M457.072998,396.930176 
	C439.387054,367.274750 459.318634,328.028748 495.751587,327.035431 
	C517.824890,326.433624 537.297668,341.541138 542.060486,362.695312 
	C546.967163,384.488129 536.264282,406.135559 515.950439,415.505096 
	C496.151886,424.637024 472.531464,418.404266 459.436188,400.579254 
	C458.650513,399.509827 457.963470,398.367950 457.072998,396.930176 
M516.226074,339.114258 
	C501.013428,331.275391 486.368286,332.233887 472.674194,342.491119 
	C459.100464,352.658203 453.955170,371.818634 460.208954,387.330750 
	C466.662018,403.337067 483.784790,414.357574 499.483093,412.608307 
	C517.271729,410.626038 531.192688,398.801575 535.065430,382.384552 
	C539.041504,365.529510 532.259277,349.570862 516.226074,339.114258 
z"/>
<path fill="#191919" opacity="1.000000" stroke="none" 
	d="
M341.368530,358.390869 
	C349.292511,337.566254 367.706940,325.522675 388.863800,327.091003 
	C409.323181,328.607635 426.806763,343.897034 430.853363,363.810791 
	C434.650787,382.498535 426.361176,402.141113 410.412567,412.246338 
	C394.076752,422.596893 373.466797,422.096771 358.396820,410.984070 
	C342.382019,399.174591 335.537415,380.037720 340.574066,361.158783 
	C340.788300,360.355713 340.986328,359.548340 341.368530,358.390869 
M348.125854,386.012207 
	C348.797119,387.529083 349.412720,389.073578 350.148224,390.558655 
	C358.302399,407.022980 377.154266,415.909515 394.347443,411.413239 
	C412.896973,406.562225 425.744507,389.970093 424.598480,371.961975 
	C423.553833,355.546844 415.491882,343.442719 400.371338,337.131378 
	C385.431122,330.895233 371.095947,333.344757 359.068665,344.338043 
	C346.933228,355.430176 343.346344,369.340485 348.125854,386.012207 
z"/>
<path fill="#1A1A1A" opacity="1.000000" stroke="none" 
	d="
M289.978882,207.832245 
	C304.700134,233.646729 326.849396,248.878281 354.944794,256.152557 
	C324.577179,252.815903 300.640015,238.728104 283.963501,213.126373 
	C261.351685,178.412735 263.715393,134.198807 289.511444,101.246132 
	C306.366791,79.714592 342.578278,61.500008 357.927856,66.832298 
	C295.321350,76.066101 257.049957,146.837662 289.978882,207.832245 
z"/>
<path fill="#141414" opacity="1.000000" stroke="none" 
	d="
M156.986023,395.077271 
	C154.456085,390.746735 152.084625,386.744934 149.706711,382.746948 
	C146.120789,376.717926 146.118881,376.719055 138.138687,377.601868 
	C138.138687,387.793884 138.139236,398.063354 138.138260,408.332855 
	C138.138046,410.664001 138.593079,413.125549 137.981689,415.284424 
	C137.504639,416.968933 135.699341,418.277344 134.484283,419.752869 
	C133.321777,418.209259 132.045029,416.734222 131.056046,415.086456 
	C130.688400,414.473938 130.993683,413.456940 130.993683,412.624390 
	C130.993515,386.482025 130.991135,360.339630 130.995178,334.197266 
	C130.996246,327.224792 131.239594,326.929779 138.430496,327.011810 
	C146.072815,327.098969 153.851990,326.482086 161.323807,327.696289 
	C173.914108,329.742249 182.277588,341.221466 181.386093,353.531525 
	C180.442322,366.563751 170.975906,376.056213 157.937302,377.047882 
	C157.141525,377.108429 156.347275,377.188599 154.841507,377.323151 
	C159.796997,385.657349 164.514984,393.598694 169.239975,401.535858 
	C171.619965,405.533905 174.292877,409.394043 176.244537,413.590363 
	C176.909851,415.020844 175.776001,417.288086 175.464233,419.173004 
	C173.691452,418.531860 171.101074,418.422363 170.281296,417.161560 
	C165.665909,410.063385 161.476364,402.688293 156.986023,395.077271 
M164.196381,336.018585 
	C155.756363,332.150299 146.987000,334.725555 138.490509,334.067139 
	C138.490509,346.417847 138.490509,358.135345 138.490509,369.998688 
	C144.172470,369.998688 149.495621,370.006287 154.818756,369.997040 
	C164.281876,369.980621 170.828964,365.465729 173.391968,357.202698 
	C175.918365,349.057770 172.852402,341.554382 164.196381,336.018585 
z"/>
<path fill="#181818" opacity="1.000000" stroke="none" 
	d="
M564.788208,390.999329 
	C564.790222,371.851532 564.792175,353.203766 564.795044,334.556000 
	C564.795227,333.390533 564.402100,332.004852 564.895325,331.108856 
	C565.732361,329.588470 567.130249,328.376862 568.292419,327.035461 
	C569.489868,328.383301 571.161682,329.553192 571.752625,331.128571 
	C572.355530,332.735992 571.901184,334.741791 571.901428,336.573181 
	C571.903076,347.331299 571.902283,358.089386 571.902283,369.894867 
	C573.810791,368.176880 574.999207,367.167267 576.120850,366.088287 
	C588.359131,354.315613 600.587097,342.532288 612.817017,330.751007 
	C613.536194,330.058289 614.159729,328.913483 614.981201,328.750031 
	C616.977966,328.352814 619.065247,328.409882 621.116028,328.283936 
	C620.761292,330.155273 621.056763,332.667908 619.946228,333.793762 
	C612.817627,341.020905 605.188110,347.756226 598.103943,355.024292 
	C592.067505,361.217468 586.541992,367.908630 582.204529,372.788483 
	C588.657898,380.043884 596.082886,388.706390 603.869263,397.030792 
	C608.751343,402.250214 614.183105,406.954742 619.355103,411.903992 
	C621.191772,413.661591 623.353638,415.555267 621.037598,418.210449 
	C618.524170,421.091919 616.397705,419.165497 614.358398,417.210358 
	C600.898621,404.306519 587.414856,391.427856 573.936340,378.543579 
	C573.508972,378.135010 573.054565,377.754669 571.902344,376.728485 
	C571.902344,388.735474 571.902405,399.817871 571.902283,410.900269 
	C571.902283,412.232239 572.341187,413.787781 571.802917,414.846222 
	C570.890015,416.641327 569.360413,418.122833 568.089905,419.736145 
	C566.991211,418.149261 565.013184,416.600037 564.943298,414.969055 
	C564.608459,407.157959 564.790222,399.324707 564.788208,390.999329 
z"/>
<path fill="#1C1C1C" opacity="1.000000" stroke="none" 
	d="
M464.224121,170.451935 
	C460.163025,208.178635 440.501373,234.141388 405.393341,246.756287 
	C371.758240,258.841980 340.990723,251.264145 314.643311,227.418732 
	C302.320496,216.266129 294.290192,202.148849 290.779968,185.810852 
	C309.616089,225.958405 340.679077,247.610977 385.247650,242.482697 
	C429.447174,237.396820 454.607819,209.372116 463.668671,165.107483 
	C463.909058,167.552734 464.032349,168.806793 464.224121,170.451935 
z"/>
<path fill="#1F1F1F" opacity="1.000000" stroke="none" 
	d="
M214.007736,326.969971 
	C223.505402,326.969940 232.510956,326.792389 241.498184,327.119110 
	C243.304550,327.184723 246.346390,328.967896 246.549530,330.304138 
	C247.033722,333.488953 244.254166,334.061157 241.484558,334.050201 
	C229.361237,334.002350 217.237610,334.029602 204.969513,334.029602 
	C204.969513,345.757568 204.969513,357.020660 204.969513,368.788025 
	C214.287201,368.788025 223.395218,368.787750 232.503220,368.788300 
	C233.836411,368.788361 235.396698,368.351837 236.450775,368.895325 
	C238.124496,369.758270 239.460159,371.276917 240.938828,372.518219 
	C239.408981,373.688507 237.917679,375.806488 236.342819,375.870575 
	C228.024063,376.209045 219.684250,376.030182 211.351746,376.030701 
	C209.371719,376.030792 207.391678,376.030701 205.082306,376.030701 
	C205.082306,388.142975 205.082306,400.012085 205.082306,412.433807 
	C209.767548,412.433807 214.376602,412.433746 218.985657,412.433838 
	C246.451859,412.434387 246.967087,412.505493 246.835541,416.276306 
	C246.711105,419.843353 246.467133,419.874664 218.735336,419.875977 
	C213.735825,419.876221 208.726562,419.681091 203.739624,419.931335 
	C198.970901,420.170563 197.224701,418.207794 197.245850,413.484680 
	C197.365967,386.654541 197.354431,359.823395 197.256531,332.993073 
	C197.240067,328.481659 198.964798,326.581696 203.513611,326.921051 
	C206.828232,327.168365 210.176132,326.969788 214.007736,326.969971 
z"/>
<path fill="#202020" opacity="1.000000" stroke="none" 
	d="
M359.785858,162.447968 
	C360.626862,161.157455 361.384796,159.667603 362.323883,159.542953 
	C364.920258,159.198334 367.592285,159.423660 370.553253,159.423660 
	C370.553253,162.955093 370.553253,166.204803 370.553253,169.838120 
	C367.327728,169.838120 363.932068,169.838120 359.785461,169.838120 
	C359.785461,167.698318 359.785461,165.284943 359.785858,162.447968 
z"/>
<path fill="#202020" opacity="1.000000" stroke="none" 
	d="
M373.967529,166.764771 
	C373.967438,164.194107 373.967438,162.072250 373.967438,159.687149 
	C377.663940,159.687149 381.041962,159.687149 384.648926,159.687149 
	C384.648926,163.108459 384.648926,166.352051 384.648926,170.214722 
	C381.931885,170.214722 379.157196,170.472519 376.478943,170.077026 
	C375.521759,169.935684 374.797943,168.213989 373.967529,166.764771 
z"/>
<path fill="#161616" opacity="1.000000" stroke="none" 
	d="
M381.949585,184.011017 
	C379.189178,184.011124 376.907196,184.011124 374.392548,184.011124 
	C374.392548,180.336456 374.392548,177.072418 374.392548,173.397324 
	C377.763000,173.397324 381.265228,173.397324 385.178314,173.397324 
	C385.178314,176.187408 385.393311,178.988220 385.052002,181.719528 
	C384.944580,182.579178 383.344788,183.252365 381.949585,184.011017 
z"/>
<path fill="#161616" opacity="1.000000" stroke="none" 
	d="
M359.816193,177.052673 
	C359.631165,174.416443 359.662933,172.616531 362.764618,172.938034 
	C365.213226,173.191849 367.709167,172.989075 370.514404,172.989075 
	C370.514404,176.583939 370.514404,179.965408 370.514404,183.683762 
	C367.213074,183.683762 363.826965,183.683762 359.816132,183.683762 
	C359.816132,181.694916 359.816132,179.615936 359.816193,177.052673 
z"/>
<path fill="#939393" opacity="1.000000" stroke="none" 
	d="
M296.040833,468.083862 
	C295.153381,466.954407 294.407318,465.480865 293.662628,464.010010 
	C296.268585,464.010010 298.000397,464.010010 299.872101,464.010010 
	C299.872101,465.208588 299.872101,466.837891 299.872101,468.513062 
	C298.526337,468.231049 297.354279,467.985413 296.040833,468.083862 
z"/>
<path fill="#939393" opacity="1.000000" stroke="none" 
	d="
M512.014465,468.075500 
	C511.121857,466.970764 510.377228,465.524567 509.597656,464.010590 
	C512.210876,464.010590 513.951050,464.010590 515.841492,464.010590 
	C515.841492,465.194824 515.841492,466.821747 515.841492,468.492432 
	C514.499084,468.215729 513.330750,467.974915 512.014465,468.075500 
z"/>
<path fill="#D9D9D9" opacity="1.000000" stroke="none" 
	d="
M214.877274,466.639832 
	C215.700043,466.360077 216.630569,466.360077 217.561096,466.360077 
	C217.517365,466.776459 217.473648,467.192841 217.429916,467.609222 
	C216.614960,467.379364 215.800003,467.149475 214.877274,466.639832 
z"/>
<path fill="#F6F6F6" opacity="1.000000" stroke="none" 
	d="
M270.976501,380.010834 
	C270.976501,376.046692 270.976501,372.581482 270.976501,368.892670 
	C279.849670,368.892670 288.479034,368.164246 296.933655,369.069031 
	C308.643494,370.322144 316.307190,379.835510 315.819946,390.857727 
	C315.303497,402.540802 306.183258,411.923584 294.442749,412.395905 
	C286.818665,412.702576 279.172272,412.453644 270.976532,412.453644 
	C270.976532,401.688354 270.976532,391.099060 270.976501,380.010834 
z"/>
<path fill="#F5F5F5" opacity="1.000000" stroke="none" 
	d="
M270.975616,338.142151 
	C270.848022,335.580017 270.669403,333.733368 273.865845,333.951111 
	C278.003387,334.232971 282.188629,333.826752 286.324219,334.122925 
	C293.355713,334.626465 298.955933,340.953125 298.819427,347.863495 
	C298.675415,355.153931 292.819702,361.002411 285.431030,361.127563 
	C280.801453,361.205994 276.169464,361.142151 270.975494,361.142151 
	C270.975494,353.473328 270.975494,346.050110 270.975616,338.142151 
z"/>
<path fill="#F6F6F6" opacity="1.000000" stroke="none" 
	d="
M516.537231,339.316833 
	C532.259277,349.570862 539.041504,365.529510 535.065430,382.384552 
	C531.192688,398.801575 517.271729,410.626038 499.483093,412.608307 
	C483.784790,414.357574 466.662018,403.337067 460.208954,387.330750 
	C453.955170,371.818634 459.100464,352.658203 472.674194,342.491119 
	C486.368286,332.233887 501.013428,331.275391 516.537231,339.316833 
z"/>
<path fill="#F5F5F5" opacity="1.000000" stroke="none" 
	d="
M348.025879,385.622528 
	C343.346344,369.340485 346.933228,355.430176 359.068665,344.338043 
	C371.095947,333.344757 385.431122,330.895233 400.371338,337.131378 
	C415.491882,343.442719 423.553833,355.546844 424.598480,371.961975 
	C425.744507,389.970093 412.896973,406.562225 394.347443,411.413239 
	C377.154266,415.909515 358.302399,407.022980 350.148224,390.558655 
	C349.412720,389.073578 348.797119,387.529083 348.025879,385.622528 
z"/>
<path fill="#F4F4F4" opacity="1.000000" stroke="none" 
	d="
M164.538177,336.194794 
	C172.852402,341.554382 175.918365,349.057770 173.391968,357.202698 
	C170.828964,365.465729 164.281876,369.980621 154.818756,369.997040 
	C149.495621,370.006287 144.172470,369.998688 138.490509,369.998688 
	C138.490509,358.135345 138.490509,346.417847 138.490509,334.067139 
	C146.987000,334.725555 155.756363,332.150299 164.538177,336.194794 
z"/>
</svg>